<svg width="474" height="40" viewBox="0 0 474 40" fill="none" xmlns="http://www.w3.org/2000/svg">
<path d="M177.75 19.48C179.635 19.48 181.089 18.1875 181.089 16.2488C181.089 14.3101 179.635 12.9638 177.75 12.9638C175.865 12.9638 174.465 14.3101 174.465 16.2488C174.465 18.1875 175.865 19.48 177.75 19.48ZM177.75 39.6751C179.635 39.6751 181.089 38.3826 181.089 36.4439C181.089 34.5052 179.635 33.1588 177.75 33.1588C175.865 33.1588 174.465 34.5052 174.465 36.4439C174.465 38.3826 175.865 39.6751 177.75 39.6751Z" fill="#F2F0ED"/>
<path d="M220.243 39.352V24.8654H229.344C236.992 24.8654 242.054 20.2878 242.054 13.233C242.054 6.17821 236.992 1.65451 229.344 1.65451H215.558V39.352H220.243ZM220.243 5.96279H228.967C234.03 5.96279 237.261 8.76318 237.261 13.233C237.261 17.7029 233.976 20.5571 228.914 20.5571H220.243V5.96279Z" fill="#F2F0ED"/>
<path d="M263.226 35.313V1.65451H250.516V5.69353H258.81V35.313H250.516V39.352H271.573V35.313H263.226Z" fill="#F2F0ED"/>
<path d="M304.332 35.313C303.093 35.313 302.555 34.936 302.555 33.4819V21.4726C302.555 15.064 298.516 11.5636 291.515 11.5636C284.891 11.5636 280.528 14.7409 279.882 20.1263H284.298C284.837 17.3259 287.422 15.4949 291.299 15.4949C295.607 15.4949 298.139 17.649 298.139 21.2033V23.0882H290.061C282.844 23.0882 279.021 26.1579 279.021 31.6509C279.021 36.6593 283.113 39.6751 289.145 39.6751C293.884 39.6751 296.631 37.5748 298.354 35.0976C298.408 37.7902 299.646 39.352 303.309 39.352H305.732V35.313H304.332ZM298.139 28.1504C298.139 32.728 294.961 35.9054 289.468 35.9054C285.806 35.9054 283.49 34.0743 283.49 31.3817C283.49 28.2582 285.698 26.8041 289.63 26.8041H298.139V28.1504Z" fill="#F2F0ED"/>
<path d="M333.589 39.352V35.313H326.695C324.326 35.313 323.518 34.4513 323.518 32.1356V15.9257H333.158V11.8867H323.518V4.18563H319.102V11.8867H311.832V15.9257H319.102V32.1895C319.102 37.0363 320.987 39.352 326.264 39.352H333.589Z" fill="#F2F0ED"/>
<path d="M352.478 39.352V15.9257H362.441V11.8867H352.478V8.70932C352.478 6.60904 353.285 5.69353 355.493 5.69353H362.441V1.65451H355.224C350.108 1.65451 348.062 3.97021 348.062 8.81703V11.8867H340.845V15.9257H348.062V39.352H352.478Z" fill="#F2F0ED"/>
<path d="M383.052 39.6751C391.076 39.6751 396.677 33.9666 396.677 25.6193C396.677 17.272 391.076 11.5636 383.052 11.5636C375.028 11.5636 369.427 17.272 369.427 25.6193C369.427 33.9666 375.028 39.6751 383.052 39.6751ZM383.052 35.7438C377.613 35.7438 373.951 31.4894 373.951 25.6193C373.951 19.7493 377.613 15.4949 383.052 15.4949C388.491 15.4949 392.153 19.7493 392.153 25.6193C392.153 31.4894 388.491 35.7438 383.052 35.7438Z" fill="#F2F0ED"/>
<path d="M425.182 11.8867C419.958 11.8867 417.481 14.3639 416.242 16.5181L416.081 11.8867H405.741V15.9257H411.88V35.313H405.741V39.352H424.32V35.313H416.296V25.4578C416.296 21.0956 418.181 16.195 424.59 16.195H428.144V11.8867H425.182Z" fill="#F2F0ED"/>
<path d="M464.225 11.5636C460.616 11.5636 457.978 13.233 456.362 15.7641C455.123 13.233 452.538 11.5636 449.253 11.5636C446.13 11.5636 443.76 12.8022 442.36 14.7948L441.983 11.8867H438.267V39.352H442.683V22.442C442.683 18.5107 444.676 15.7103 448.23 15.7103C452.108 15.7103 453.508 18.403 453.508 21.7957V39.352H457.924V22.065C457.924 18.4568 460.024 15.7103 463.632 15.7103C467.025 15.7103 468.748 18.1337 468.748 21.7957V39.352H473.164V21.6342C473.164 15.3872 469.664 11.5636 464.225 11.5636Z" fill="#F2F0ED"/>
<path d="M78.0193 35.3165V39.3616H56.9329V35.3165H65.2376V15.9014H56.9329V11.8563H69.6609V35.3165H78.0193V35.3165ZM64.1056 3.65891C64.1056 1.77055 65.6158 0.314026 67.5042 0.314026C69.3926 0.314026 70.8491 1.77055 70.8491 3.65891C70.8491 5.6546 69.3926 7.05746 67.5042 7.05746C65.6158 7.05746 64.1056 5.6546 64.1056 3.65891Z" fill="#F2F0ED"/>
<path d="M108.68 11.8568V16.1701H105.121C98.7017 16.1701 96.8159 21.0788 96.8159 25.4458V35.3144H106.092V39.3594H86.2447V35.3144H92.3927V15.9018H86.2447V11.8568H96.5987L96.7597 16.4946C97.999 14.3379 100.48 11.8568 105.713 11.8568H108.68Z" fill="#F2F0ED"/>
<path d="M115.505 25.6088C115.505 17.2504 121.114 11.5316 129.15 11.5316C137.187 11.5316 142.795 17.2479 142.795 25.6088C142.795 33.9697 137.187 39.6859 129.15 39.6859C121.114 39.6859 115.505 33.9697 115.505 25.6088V25.6088ZM138.265 25.6088C138.265 19.7316 134.598 15.4694 129.15 15.4694C123.702 15.4694 120.035 19.729 120.035 25.6088C120.035 31.4885 123.702 35.7482 129.15 35.7482C134.598 35.7482 138.265 31.4885 138.265 25.6088V25.6088Z" fill="#F2F0ED"/>
<path d="M32.6852 39.3817L45.5001 1.43546H50.3807L37.5659 39.3817H32.6852Z" fill="#F2F0ED"/>
<path d="M0.835785 39.3817L13.6506 1.43546H18.5287L5.71641 39.3817H0.835785Z" fill="#F2F0ED"/>
<path d="M32.8545 18.3882H19.7356L18.3685 22.4333H31.4874L32.8545 18.3882Z" fill="#F2F0ED"/>
</svg>
